<?xml version="1.0" encoding="utf-8"?>
<!-- Generator: Adobe Illustrator 21.0.0, SVG Export Plug-In . SVG Version: 6.00 Build 0)  -->
<svg version="1.1" id="Layer_1" xmlns="http://www.w3.org/2000/svg" xmlns:xlink="http://www.w3.org/1999/xlink" x="0px" y="0px"
	 viewBox="0 0 661.8 97" style="enable-background:new 0 0 661.8 97;" xml:space="preserve">
<g>
	<polygon points="72.1,82 79.7,89.7 87.5,82 79.6,74.1 	"/>
	<polygon points="56,82 63.7,89.7 71.4,82 63.5,74.2 	"/>
	<polygon points="133,16.3 124.6,8 116.5,16.2 124.7,24.6 	"/>
	<path d="M138.2,41.9c-0.2-1.4-0.5-2.8-0.7-4.2c-0.3-1.4-0.5-2.7-0.8-3.8c-0.2-1.1-0.5-2.1-0.7-2.9c-0.2-0.8-0.3-1.3-0.4-1.5
		L125,32.7c0.1,0.5,0.3,1.1,0.5,1.9c0.2,0.8,0.4,1.8,0.6,2.8c0.2,1,0.4,2.1,0.7,3.2c0.2,1.1,0.4,2.3,0.6,3.3s0.3,2.1,0.4,3.1
		c0.1,1,0.2,1.8,0.2,2.4c0,1.6-0.3,2.9-0.8,3.8c-0.5,0.9-1.1,1.6-1.8,2.1c-0.7,0.5-1.4,0.7-2,0.8c-0.7,0.1-1.2,0.2-1.6,0.2h-10.6
		h-1.8h-5c-0.3,0-0.8,0-1.5-0.1c-0.8-0.1-1.5-0.3-2.3-0.7s-1.5-1-2.1-1.7c-0.6-0.8-0.9-1.8-0.9-3.2V36.2H86.4V51
		c0,0.6-0.1,1.2-0.3,1.9c-0.2,0.6-0.5,1.2-1.1,1.7c-0.6,0.5-1.4,0.9-2.5,1.3c-1.1,0.3-2.6,0.5-4.4,0.5h-14h-1.3
		c-0.4,0-1-0.1-1.8-0.3c-0.8-0.2-1.6-0.5-2.4-1c-0.8-0.5-1.5-1.1-2.1-1.9s-0.9-1.8-1-3c0-0.3,0-0.7,0-1.1c0-0.4,0-0.8,0-1.2
		c0-2.8-0.4-5.6-1.2-8.1s-2-4.8-3.6-6.8c-1.6-1.9-3.6-3.5-5.9-4.6c-2.3-1.1-5-1.7-8.1-1.7c-3.2-0.1-5.8,0.5-8,1.6s-3.9,2.6-5.4,4.5
		C22,34.8,20.9,37,20,39.5s-1.5,5-2,7.7l-7.4-3.7L0,49.9L0,97h11c0-6.8,0-13.6,0-20.5c0-6.8,0-13.7,0-20.5c0.7,0.3,1.4,0.7,2,1
		s1.3,0.6,1.9,1c0.6,0.3,1.3,0.6,1.9,1c0.7,0.3,1.4,0.7,2.1,1.1c2,1.1,4.1,2.1,6.1,3.1c2,1,3.9,1.9,5.8,2.7c1.8,0.8,3.6,1.4,5.2,1.9
		c1.6,0.5,3.1,0.7,4.3,0.7c0.7,0,1.4-0.1,2.3-0.2s1.8-0.3,2.8-0.6c1-0.3,2-0.8,3-1.4c1-0.6,1.9-1.4,2.8-2.5c1.3,1.4,2.9,2.3,4.8,2.9
		c1.8,0.6,4,0.8,6.6,0.9v0h0.4h1.3h14c3,0,5.6-0.3,7.9-1c2.3-0.7,4.3-1.7,6-3.1c1.5,1.4,3.2,2.4,5.4,3.1c2.1,0.7,4.5,1,7,1h5h1.8
		h10.3c2.1,0,4.2-0.4,6.3-1.1c2.1-0.7,3.9-1.8,5.6-3.3c1.7-1.5,3-3.4,4-5.7c1-2.3,1.5-5,1.5-8.1c0-1-0.1-2.2-0.2-3.5
		C138.7,44.7,138.5,43.3,138.2,41.9z M44.8,53.5c-0.4,1.3-1,2.2-1.5,2.7c-0.6,0.5-1.2,0.8-1.7,0.9c-0.6,0-1,0.1-1.3,0.1
		c-0.7,0-1.5-0.1-2.5-0.4c-1-0.3-2-0.7-3.2-1.2c-1.1-0.5-2.3-1-3.6-1.6c-1.2-0.6-2.5-1.2-3.6-1.9c0.4-2.3,0.8-4.2,1.3-5.8
		s1-2.9,1.5-3.9s1.1-1.8,1.7-2.4c0.6-0.6,1.2-1,1.8-1.3s1.2-0.5,1.8-0.5c0.6-0.1,1.1-0.1,1.7-0.1c1.2,0,2.3,0.2,3.1,0.6
		c0.9,0.4,1.6,0.9,2.3,1.6c0.6,0.6,1.2,1.3,1.5,2.1c0.4,0.8,0.7,1.5,0.9,2.3c0.2,0.7,0.4,1.4,0.5,2c0.1,0.6,0.1,1,0.1,1.3
		C45.4,50.4,45.2,52.3,44.8,53.5z"/>
	<rect x="146.5" y="2.1" width="11.3" height="65.5"/>
	<polygon points="237.9,13.8 229.5,5.4 221.4,13.7 229.6,22 	"/>
	<path d="M306.5,41.9c-0.2-1.4-0.5-2.8-0.7-4.2c-0.3-1.4-0.5-2.7-0.8-3.8c-0.2-1.1-0.5-2.1-0.7-2.9c-0.2-0.8-0.3-1.3-0.4-1.5
		l-10.7,3.2c0.1,0.5,0.3,1.1,0.5,1.9c0.2,0.8,0.4,1.8,0.6,2.8c0.2,1,0.4,2.1,0.7,3.2c0.2,1.1,0.4,2.3,0.6,3.3s0.3,2.1,0.4,3.1
		c0.1,1,0.2,1.8,0.2,2.4c0,1.6-0.3,2.9-0.8,3.8c-0.5,0.9-1.1,1.6-1.8,2.1c-0.7,0.5-1.4,0.7-2,0.8c-0.7,0.1-1.2,0.2-1.6,0.2h-9.6
		h-2.8h-5.5c-0.2,0-0.7,0-1.3,0c-0.6,0-1.2-0.2-1.9-0.4c-0.7-0.2-1.3-0.6-2-1.1s-1.1-1.2-1.4-2.1c1.4-0.9,2.5-1.6,3.3-2.2
		c0.8-0.6,1.3-0.9,1.5-1l-1.3-9.2c-0.3-0.1-1-0.3-2.1-0.7c-1.1-0.4-2.4-0.9-4-1.5c-1.6-0.6-3.4-1.3-5.4-2s-4.1-1.5-6.2-2.2
		c-2.1-0.8-4.2-1.5-6.3-2.2c-2.1-0.7-4.1-1.3-5.9-1.9c-1.8-0.5-3.5-1-5-1.3c-1.5-0.3-2.6-0.5-3.4-0.5c-2,0-3.8,0.3-5.4,1
		c-1.6,0.7-3,1.6-4.2,2.8c-1.2,1.2-2.2,2.6-3,4.2c-0.8,1.6-1.5,3.3-2.1,5.1l10.4,3.1c0.4-0.8,0.8-1.6,1.1-2.2
		c0.4-0.6,0.8-1.1,1.2-1.5c0.4-0.4,0.9-0.7,1.4-0.8c0.5-0.2,1.1-0.3,1.8-0.3c0.7,0,1.6,0.1,2.7,0.3c1.2,0.2,2.5,0.5,3.9,0.9
		c1.5,0.4,3,0.8,4.7,1.3c1.7,0.5,3.3,1,5,1.5s3.4,1,5,1.5c1.6,0.5,3.1,1,4.5,1.4c-2.2,1.2-4.8,2.3-7.7,3.5s-6.1,2.3-9.3,3.2
		c-3.3,1-6.6,1.7-10,2.3c-3.4,0.6-6.5,0.9-9.5,0.9h-10.4h-3.2h-4.5v-6.2c0-3.2-0.3-6.2-1-8.9c-0.7-2.7-1.8-5.1-3.3-7.1
		s-3.4-3.6-5.8-4.7c-2.3-1.1-5.2-1.7-8.5-1.7c-2.7,0-5.2,0.5-7.5,1.5c-2.3,1-4.4,2.4-6.2,4.2c-0.6,0.7-1.3,1.5-2,2.4
		c-0.7,0.9-1.3,2-1.9,3.3c-0.6,1.2-1,2.7-1.4,4.3c-0.4,1.6-0.5,3.5-0.5,5.6c0,2.4,0.3,4.6,0.8,6.5c0.6,1.9,1.3,3.5,2.3,4.9
		s2.1,2.5,3.4,3.5s2.7,1.7,4.1,2.3c1.5,0.6,3,1,4.5,1.3c1.6,0.2,3.1,0.4,4.6,0.4h7c-0.1,2.3-0.5,4.1-1.2,5.5
		c-0.7,1.4-1.6,2.6-2.9,3.6c-0.8,0.7-1.8,1.3-2.9,1.8c-1.1,0.5-2.4,0.9-3.9,1.2s-3.2,0.6-5,0.7c-1.9,0.2-4.1,0.3-6.5,0.3v11.3
		c3.2,0,6-0.1,8.5-0.4c2.5-0.3,4.8-0.7,6.8-1.2c2-0.5,3.9-1.2,5.5-2c1.6-0.8,3.2-1.8,4.5-2.8c2.7-2.1,4.7-4.6,6-7.5
		s2.1-6.3,2.2-10.5h4.6h3.2h10.4c3.1,0,6.2-0.3,9.3-0.8c3.1-0.5,6.1-1.3,9-2.1s5.8-1.9,8.5-3c2.7-1.1,5.2-2.3,7.5-3.4
		c1.6,3.1,3.8,5.5,6.7,7c2.9,1.6,6.1,2.4,9.7,2.4h5.5h2.8h9.3c2.1,0,4.2-0.4,6.3-1.1c2.1-0.7,3.9-1.8,5.6-3.3c1.7-1.5,3-3.4,4-5.7
		c1-2.3,1.5-5,1.5-8.1c0-1-0.1-2.2-0.2-3.5C306.9,44.7,306.7,43.3,306.5,41.9z M192.1,56.4h-7c-1,0-2.1-0.1-3.1-0.4
		c-1-0.3-2-0.7-2.8-1.3c-0.8-0.6-1.5-1.4-2-2.3c-0.5-0.9-0.8-2.1-0.8-3.4c0-3.4,0.8-5.9,2.3-7.5s3.6-2.4,6.1-2.4
		c0.3,0,0.7,0,1.2,0.1c0.5,0.1,1,0.2,1.5,0.5c0.5,0.2,1.1,0.6,1.6,1.1c0.6,0.5,1.1,1.1,1.5,2c0.4,0.8,0.8,1.8,1.1,3.1
		c0.3,1.2,0.4,2.7,0.4,4.4V56.4z"/>
	<polygon points="279.4,81.5 287.7,89.9 296,81.6 287.6,73.2 	"/>
	<path d="M429.4,35c-1.6-2-3.5-3.6-5.9-4.8c-2.4-1.2-5.2-1.8-8.3-1.8s-5.8,0.6-8,1.8c-2.2,1.2-3.9,2.8-5.3,4.7s-2.5,4-3.4,6.3
		s-1.6,4.6-2.2,6.8c-0.4,1.2-0.7,2.4-1.1,3.4s-0.7,1.9-1.1,2.6c-0.4,0.7-0.9,1.3-1.4,1.7s-1.1,0.6-1.8,0.6h-3.4h-1.3
		c-1,0-2.2-0.1-3.5-0.3c-1.3-0.2-2.7-0.7-4-1.3s-2.5-1.6-3.6-2.8c-1.1-1.2-1.9-2.8-2.4-4.8L364.5,15l-11.1,2.6l1.1,4.4
		c-2.9,1-5.7,2.1-8.3,3.4c-2.7,1.3-5.1,2.9-7.1,4.8c-2.1,1.9-3.7,4-5,6.5c-1.2,2.5-1.9,5.4-1.9,8.6c0,2.8,0.5,5.3,1.4,7.6
		c1,2.2,2.3,4.1,3.9,5.7c1.6,1.6,3.5,2.8,5.7,3.6c2.2,0.8,4.5,1.3,6.9,1.3c1.3,0,2.7-0.1,4.1-0.4c1.4-0.3,2.8-0.7,4.1-1.3
		c1.3-0.6,2.6-1.3,3.7-2.2c1.1-0.9,2.1-1.9,2.8-3c0.9,1.9,2.1,3.6,3.5,5c1.4,1.4,3.1,2.5,4.9,3.4s3.9,1.6,6,2
		c1.9,0.4,3.9,0.6,5.9,0.6l0,0h0.9h1.3h3.4c2.1,0,3.9-0.3,5.5-0.9c1.6-0.6,3-1.7,4.4-3.1c1.8,1,3.4,1.8,5,2.6c1.5,0.8,3,1.4,4.4,2
		c1.4,0.5,2.8,0.9,4.2,1.2c1.4,0.3,2.8,0.4,4.3,0.4c0.8,0,1.7-0.1,2.7-0.2c1.1-0.1,2.2-0.4,3.3-0.8c1.1-0.4,2.3-1,3.4-1.9
		c1.1-0.8,2.2-2,3-3.4c0.9-1.5,1.6-3.3,2.2-5.5s0.8-4.9,0.8-8c0-2.8-0.4-5.6-1.2-8.2C432.1,39.3,430.9,37,429.4,35z M359.5,45.1
		c-0.4,2.2-1.4,3.8-2.9,4.8c-1.5,1-3.4,1.7-5.7,2c-1,0.2-2,0.1-3-0.2c-1-0.3-1.9-0.7-2.7-1.3c-0.8-0.6-1.5-1.3-2-2.2s-0.8-1.9-0.8-3
		c0-2.9,1.3-5.3,3.8-7.3c2.5-2,6.2-3.7,11-5.3c0.4,1.4,0.8,2.7,1.1,3.8s0.6,2.2,0.8,3.1s0.3,1.9,0.4,2.8
		C359.7,43.4,359.7,44.2,359.5,45.1z M423.7,55.4c-0.5,1.1-1,2-1.6,2.5c-0.6,0.5-1.2,0.9-1.8,1c-0.6,0.1-1,0.2-1.3,0.2
		c-0.8,0-1.8-0.2-2.8-0.5c-1.1-0.3-2.2-0.8-3.4-1.3c-1.2-0.5-2.4-1.1-3.7-1.8c-1.3-0.7-2.4-1.3-3.6-1.9c0.5-1.3,1.1-2.8,1.5-4.4
		c0.5-1.6,1-3.1,1.7-4.5c0.7-1.4,1.5-2.6,2.5-3.5c1-0.9,2.3-1.4,3.9-1.4c1.8,0,3.3,0.4,4.5,1.3c1.2,0.8,2.2,1.8,2.9,3
		c0.7,1.2,1.2,2.4,1.5,3.6c0.3,1.2,0.4,2.2,0.4,3C424.4,52.7,424.2,54.3,423.7,55.4z"/>
	<polygon points="486.4,18.4 478.1,10 469.9,18.3 478.2,26.7 	"/>
	<path d="M555.8,40.8c-0.9-1.2-1.8-2.4-2.7-3.6s-1.9-2.6-2.9-3.8s-2-2.6-2.9-3.8c-1-1.2-1.9-2.4-2.7-3.6c-2-2.7-4-5.3-6-7.9
		l-8.5,6.4l4.7,5.9c2.3,2.8,4.4,5.4,6.3,7.8c1.9,2.4,3.5,4.6,4.8,6.5c1.3,2,2.2,3.7,2.8,5.3c0.6,1.6,0.7,2.9,0.4,4
		c-0.4,1.2-0.9,2.1-1.6,2.9c-0.7,0.7-1.5,1.3-2.5,1.7c-0.9,0.4-1.9,0.7-2.9,0.8c-1,0.1-2,0.2-3,0.2s-1.9-0.1-2.9-0.4s-2-0.5-2.9-0.8
		c0.9-0.9,1.8-1.9,2.5-2.9c0.8-1,1.4-2,1.9-3.1c0.5-1.1,0.9-2.2,1.2-3.4c0.3-1.2,0.4-2.5,0.4-4c0-1.8-0.4-3.7-1.2-5.8s-2-4-3.5-5.8
		c-1.6-1.8-3.5-3.2-5.8-4.4c-2.3-1.2-4.9-1.8-7.8-1.8c-2.6,0-5,0.4-7.3,1.3c-2.3,0.8-4.2,2-5.9,3.5s-3,3.3-4,5.4s-1.4,4.4-1.4,6.9
		c0,1.3,0.1,2.5,0.3,3.6c0.2,1.1,0.6,2.1,1,3c0.4,1,1,1.9,1.6,2.7c0.6,0.9,1.3,1.8,2.1,2.7c-0.7,0.1-1.4,0.2-2,0.2
		c-0.6,0-1.2,0-1.8,0c-0.6,0-1.2,0-1.9,0c-0.7,0-1.4,0-2.3,0h-3.5h-1.7h-1.2c-0.3,0-0.8,0-1.5-0.1c-0.8-0.1-1.5-0.3-2.3-0.7
		s-1.5-1-2.1-1.7c-0.6-0.8-0.9-1.8-0.9-3.2V36.2h-11.3V51c0,0.6-0.1,1.2-0.3,1.9s-0.5,1.2-1.1,1.7c-0.6,0.5-1.4,0.9-2.5,1.3
		c-1.1,0.3-2.6,0.5-4.4,0.5h-6c-2.5,0-4.5-0.1-6-0.4c-1.4-0.3-2.5-0.8-3.2-1.6c-0.7-0.8-1.2-1.9-1.3-3.4c-0.2-1.5-0.3-3.4-0.3-5.8
		v-43h-11.3v43c0,2.5,0.1,4.9,0.3,7c0.2,2.1,0.5,4,1,5.7c0.5,1.7,1.3,3.1,2.3,4.4c1,1.2,2.3,2.3,3.9,3.1c1.6,0.8,3.7,1.4,6,1.8
		c1.9,0.3,4,0.5,6.5,0.6v0h8c3,0,5.6-0.3,7.9-1c2.3-0.7,4.3-1.7,6-3.1c1.5,1.4,3.2,2.4,5.4,3.1c2.1,0.7,4.5,1,7,1h1.2h1.7h3.5
		c4.3,0,8.2-0.2,11.7-0.6c3.5-0.4,6.8-1.1,9.7-1.9c0.3,0.2,0.7,0.4,1.2,0.6c0.5,0.2,1,0.4,1.4,0.7c0.5,0.2,1,0.5,1.6,0.7
		c2.4,1.2,4.8,2,7.1,2.5c2.3,0.4,4.6,0.7,6.8,0.7c2.6,0,4.9-0.3,7.1-0.9c2.2-0.6,4.1-1.5,5.7-2.5c1.7-1.1,3.1-2.4,4.3-3.9
		c1.2-1.5,2.1-3.2,2.7-5c1-2.9,1.2-5.9,0.7-8.9S557.6,43.3,555.8,40.8z M528.1,48c-0.4,0.9-0.9,1.7-1.6,2.4
		c-0.7,0.7-1.4,1.4-2.3,1.9c-0.9,0.6-1.8,1.1-2.7,1.5c-1.4-0.8-2.6-1.5-3.7-2.2c-1-0.7-1.9-1.4-2.6-2.1c-0.7-0.7-1.2-1.5-1.6-2.4
		c-0.3-0.9-0.5-1.9-0.5-3c0-0.9,0.2-1.8,0.6-2.6c0.4-0.8,1-1.5,1.7-2.2c0.7-0.6,1.6-1.1,2.5-1.5c1-0.4,1.9-0.5,3-0.5
		c0.7,0,1.5,0.2,2.4,0.5s1.7,0.8,2.5,1.4c0.8,0.6,1.5,1.4,2,2.4c0.5,1,0.8,2.1,0.8,3.4C528.7,46.1,528.5,47.1,528.1,48z"/>
	<polygon points="637,27.7 644.7,20 636.9,12.3 629.1,20.1 	"/>
	<rect x="622.3" y="2.1" transform="matrix(0.7071 -0.7071 0.7071 0.7071 178.6503 445.7549)" width="10.3" height="10.2"/>
	<path d="M661.6,45.7c-0.2-1.3-0.3-2.7-0.6-4c-0.2-1.4-0.5-2.8-0.8-4.1c-0.3-1.4-0.5-2.6-0.8-3.7c-0.3-1.1-0.5-2.1-0.7-2.8
		c-0.2-0.8-0.3-1.2-0.4-1.5L647.8,33c0.1,0.5,0.3,1.1,0.5,1.9c0.2,0.8,0.4,1.7,0.6,2.6c0.2,1,0.4,2,0.6,3.1s0.4,2.1,0.6,3.2
		c0.2,1,0.3,2,0.4,3c0.1,0.9,0.2,1.7,0.2,2.4c0,1.6-0.2,2.9-0.7,3.8c-0.5,0.9-1.1,1.7-1.7,2.2s-1.3,0.8-2,1
		c-0.7,0.2-1.2,0.3-1.6,0.3c-2.7,0-4.6-0.6-5.8-1.8c-1.2-1.2-1.8-3-1.8-5.5V36.3h-11.3v12.9c0,1.6-0.3,2.9-0.8,3.8
		c-0.5,1-1.1,1.7-1.8,2.2c-0.7,0.5-1.4,0.8-2,0.9c-0.7,0.1-1.2,0.2-1.6,0.2c-2.7,0-4.6-0.6-5.8-1.7c-1.2-1.1-1.8-2.9-1.8-5.4V36.3
		h-11.3v12.9v0.2c0,1.6-0.3,2.9-0.8,3.8c-0.5,0.9-1.1,1.6-1.8,2.1s-1.4,0.8-2,0.9c-0.7,0.1-1.2,0.2-1.6,0.2h-7.6
		c-2.5,0-4.5-0.1-6-0.4c-1.4-0.3-2.5-0.8-3.2-1.6c-0.7-0.8-1.2-1.9-1.3-3.4c-0.2-1.5-0.3-3.4-0.3-5.8v-43h-11.3v43
		c0,2.5,0.1,4.9,0.3,7c0.2,2.1,0.5,4,1,5.7c0.5,1.7,1.3,3.1,2.3,4.4c1,1.2,2.3,2.3,3.9,3.1c1.6,0.8,3.7,1.4,6,1.8
		c1.7,0.3,3.8,0.5,6,0.6v0h10.2c2.2,0,4.2-0.3,6.3-1c2-0.7,3.9-1.8,5.5-3.4c3.2,2.9,7.6,4.3,13.2,4.3c2.1,0,4.2-0.3,6.2-1
		c2-0.7,3.9-1.8,5.5-3.3c3.3,3,7.7,4.5,13.4,4.5c2.1,0,4.2-0.4,6.2-1.2c2.1-0.8,3.9-1.9,5.5-3.4c1.6-1.5,3-3.5,4-5.8s1.5-5,1.5-8.1
		C661.8,48.2,661.7,47,661.6,45.7z"/>
	<polygon points="625.2,20.2 617.4,12.5 609.7,20.3 617.4,28 	"/>
</g>
</svg>
