<?xml version="1.0" encoding="utf-8"?>
<!-- Generator: Adobe Illustrator 21.0.0, SVG Export Plug-In . SVG Version: 6.00 Build 0)  -->
<svg version="1.1" id="Layer_1" xmlns="http://www.w3.org/2000/svg" xmlns:xlink="http://www.w3.org/1999/xlink" x="0px" y="0px"
	 viewBox="0 0 316.2 148.2" style="enable-background:new 0 0 316.2 148.2;" xml:space="preserve">
<style type="text/css">
	.st0{fill:#1A1A1A;}
</style>
<g>
	<path class="st0" d="M39.3,71.3c1-0.6,2-1.5,3-2.6s1.7-2.4,2.5-3.9c0.7-1.4,1.2-2.6,1.5-3.5c0.3-0.9,0.5-1.9,0.5-3
		c-0.3-1.4-1.3-2.5-3-3.3c-1.4-0.7-3.4-1.3-6-1.8l-0.4-0.1c0.1-0.2,0.4-0.7,0.9-1.5c0,0,0,0,0,0c0,0,0,0,0,0
		c0.6-0.9,1.4-1.9,2.4-2.7c1-0.9,2-1.5,3-1.9s2-0.6,3-0.6c0.3,0,0.9,0,1.7,0.1s1.9,0.7,3.3,1.8c0.3,0.1,0.6,0.1,0.9,0.1
		c1.5,0,2.9-0.8,4.2-2.5c1.3-1.6,2.3-3.5,2.9-5.6c0.7-2.1,1.1-3.5,1.3-4.3s0.3-1.4,0.3-1.8v-0.3c0-0.3-0.2-0.5-0.5-0.5
		c-0.2,0-0.5,0.4-1,1.2c-1.8,2.7-2.8,4.2-2.9,4.2c-0.4,0.5-1,0.7-1.8,0.7c-0.9,0-2-0.3-3.4-0.9c-0.5-0.1-1-0.1-1.5-0.1
		c-0.9,0-1.9,0.2-3.1,0.6c-1.2,0.4-2.5,1.2-4,2.3c-1.5,1.1-3,2.5-4.4,4.3s-2.9,3.7-4.2,5.9c0,0,0,0,0,0c0,0,0,0,0,0
		c-1.6,2.1-3.9,6.3-7.1,12.6c-3.4,1.5-6.5,3.4-9.3,5.7c-2.8,2.3-5.1,4.7-6.9,7.3s-3.3,5.2-4.4,8C5.5,88,4.6,90.5,4,92.8
		c-2.1,7.3-3.3,15.2-3.8,23.6c-0.1,5.4-0.2,9.9-0.2,13.5c0,2.1,0,4.5,0.1,7.2c0.1,2.8,0.3,6.4,0.5,10.8c0.1,0.2,0.1,0.3,0.2,0.3
		c0,0,0.1,0,0.1,0c0.1,0,0.1-0.2,0.2-0.5c0.1-2.3,0.3-7.9,0.7-16.8c0.3-9,0.9-16,1.8-21.1c0.8-5.1,1.5-9.1,2.1-11.9
		c0.6-2.8,1.5-5.8,2.9-8.9c0.6-1.3,1.5-2.8,2.8-4.5c1.3-1.7,3-3.3,5.2-4.9s4.8-3,7.8-4.3c3.1-1.3,6.6-2.1,10.7-2.6
		C36.8,72.4,38.2,71.9,39.3,71.3z"/>
	<path class="st0" d="M33.5,127.4c0,0,0-0.1,0-0.1l0.1-0.6c0-0.1,0-0.1,0-0.2c0-0.1,0-0.2,0-0.2v-0.7c0-0.1,0-0.1,0-0.2
		c0-0.1,0-0.2,0-0.2c0-0.1,0-0.1,0-0.2c0-0.1,0-0.2,0-0.3c0,0,0-0.1,0-0.2c0-0.1,0-0.1,0-0.1c0,0,0-0.1,0-0.1l-0.1-0.4
		c-0.1-0.2-0.1-0.3-0.2-0.4c-0.1-0.3-0.3-0.7-0.5-1l-0.4-0.6l-0.6-0.7c-0.3-0.3-0.5-0.5-0.8-0.7c-0.3-0.2-0.5-0.5-0.8-0.7l-0.2-0.1
		c-0.2-0.2-0.4-0.3-0.6-0.4c-0.2-0.1-0.4-0.2-0.6-0.4c-0.1-0.1-0.3-0.2-0.4-0.2c-0.1-0.1-0.1-0.1-0.2-0.1c-0.1,0-0.1-0.1-0.2-0.1
		c-0.1-0.1-0.1-0.1-0.2-0.1c-0.1,0-0.1-0.1-0.2-0.1l-0.3-0.1c0,0-0.1,0-0.1,0l-0.1,0h-0.1c-0.2,0-0.4,0.1-0.6,0.3c0,0,0,0.1,0,0.1
		l-7.5,11.4c-0.2,0.3-0.2,0.5-0.2,0.6c0,0.1,0.1,0.3,0.2,0.4c0,0,0,0,0,0c0.7,0.4,1.3,0.9,2,1.4c0.2,0.2,0.5,0.3,0.7,0.5
		c0.7,0.6,1.5,1.1,2.1,1.7c0.7,0.6,1.4,1.2,2.1,1.7c0.2,0.2,0.4,0.3,0.7,0.3h0.3l0.3-0.1c0.3-0.1,0.6-0.3,0.9-0.6l0.2-0.2l0.5-0.5
		c0.2-0.1,0.3-0.2,0.4-0.4l0.3-0.3c0.1-0.1,0.2-0.1,0.3-0.2c0.1-0.1,0.2-0.2,0.2-0.2c0,0,0-0.1,0.1-0.1l0.8-1
		c0.1-0.1,0.2-0.2,0.3-0.4c0.1-0.1,0.1-0.1,0.2-0.2s0.1-0.2,0.2-0.2l0.2-0.3l0.6-0.9c0,0,0-0.1,0.1-0.1c0.1-0.1,0.1-0.3,0.2-0.4
		c0.1-0.1,0.2-0.3,0.2-0.4l0.2-0.4c0,0,0-0.1,0-0.1c0,0,0,0,0-0.1c0.1-0.1,0.1-0.3,0.2-0.4c0-0.1,0.1-0.3,0.2-0.4l0.2-0.6
		C33.5,127.5,33.5,127.5,33.5,127.4z"/>
	<path class="st0" d="M47.6,121.5c-0.4-0.6-0.9-1.2-1.5-1.8c-0.6-0.6-1.2-1-1.8-1.5c-0.7-0.4-1.3-0.9-2-1.2
		c-0.3-0.2-0.4-0.3-0.5-0.3h-0.2c-0.2,0-0.4,0.1-0.6,0.4l-7.4,11.4c-0.2,0.3-0.2,0.4-0.2,0.5c0,0.1,0.1,0.3,0.2,0.5
		c1.3,0.8,2.5,1.7,3.6,2.6c1.1,0.9,2.2,1.8,3.3,2.8c0.1,0.1,0.3,0.2,0.4,0.2c0.1,0,0.2,0.1,0.3,0.1s0.2,0,0.4,0
		c0.2,0,0.4-0.1,0.7-0.3c0.3-0.2,0.7-0.5,1.1-1c0.7-0.7,1.3-1.3,1.9-2.1c0.6-0.7,1.1-1.5,1.7-2.4c0.7-1,1.1-1.9,1.3-2.7
		c0.2-0.7,0.3-1.3,0.3-1.8c0-0.5-0.1-0.9-0.2-1.4C48.3,122.9,48,122.2,47.6,121.5z"/>
	<path class="st0" d="M40.1,13.5c1.4,0.8,2.6,1.8,3.8,2.7s2.3,1.9,3.5,2.9c0.1,0.1,0.2,0.2,0.4,0.2c0.1,0,0.3,0,0.5-0.1
		s0.6-0.3,1-0.5s0.8-0.5,1.1-0.8c0.4-0.3,0.6-0.5,0.8-0.7c0.6-0.6,1.1-1.1,1.6-1.7c0.5-0.6,1-1.3,1.4-2c0.7-1.1,1.2-2,1.4-2.8
		c0.2-0.8,0.3-1.4,0.3-1.9s-0.1-1-0.2-1.4c-0.2-0.8-0.5-1.6-1-2.2s-1-1.3-1.5-1.9S52,2.1,51.3,1.6S50,0.7,49.3,0.3
		C49,0.1,48.8,0,48.7,0c-0.1,0-0.2,0-0.2,0c-0.2,0-0.4,0.2-0.6,0.5L40,12.4c-0.2,0.3-0.2,0.5-0.2,0.5l0,0.1
		C39.8,13.2,39.9,13.4,40.1,13.5z"/>
	<path class="st0" d="M76.9,29.8c-1.3,0-3,1.1-4.9,3.3c-4.3,4.9-7.8,10.9-10.6,18c-3,7.6-4.5,14.7-4.5,21.5c0,8.1,2.2,14.4,6.7,18.9
		c-8.3,9.1-17.2,13.7-26.8,13.7c-5.6,0-9.6-1.3-12.2-3.8c4,6.2,8.9,9.3,14.7,9.3c4.9,0,10-1.7,15.3-5c4.3-2.7,8.1-6.1,11.6-10.2
		l1.2-2.1c2.1-3.6,4.1-8.4,6-14.3c2-6.1,3.3-11.7,4-16.6c1.3-9.7,2-16.9,2-21.8c0-2.9-0.2-5.6-0.5-8.1
		C78.8,30.7,78.1,29.8,76.9,29.8z M72.8,67.8c-0.5,5.8-1.4,10.4-2.8,13.9c-1,2.6-2.9,5.6-5.5,9.1c-3.5-4.5-5.2-10.5-5.2-18.3
		c0-6.3,1.1-12.8,3.4-19.3c2.2-6.3,4.9-11.1,8.1-14.5c1-1.1,1.7-1.6,2.1-1.6c0.6,0,0.9,2.5,0.9,7.4C73.8,51.9,73.4,59.7,72.8,67.8z"
		/>
	<path class="st0" d="M93.8,17.1c1.4,0.8,2.6,1.8,3.8,2.7c1.1,1,2.3,1.9,3.5,2.9c0.1,0.1,0.2,0.2,0.4,0.2c0.1,0,0.3,0,0.5-0.1
		s0.6-0.3,1-0.5s0.8-0.5,1.1-0.8c0.4-0.3,0.6-0.5,0.8-0.7c0.6-0.6,1.1-1.1,1.6-1.7c0.5-0.6,1-1.3,1.4-2c0.7-1.1,1.2-2,1.4-2.8
		c0.2-0.8,0.3-1.4,0.3-1.9s-0.1-1-0.2-1.4c-0.2-0.8-0.5-1.6-1-2.2s-1-1.3-1.5-1.9s-1.2-1.1-1.9-1.6s-1.4-0.9-2.1-1.3
		c-0.3-0.2-0.4-0.3-0.6-0.3c-0.1,0-0.2,0-0.2,0c-0.2,0-0.4,0.2-0.6,0.5L93.8,16c-0.2,0.3-0.2,0.5-0.2,0.5l0,0.1
		C93.5,16.8,93.6,17,93.8,17.1z"/>
	<path class="st0" d="M144.2,16.1c-0.2,0-0.4,0.1-0.7,0.3c-3.1,2.2-6.5,4.2-10.2,5.9c-3.7,1.7-7.6,3.8-11.5,6.2
		c-3.9,2.4-7.3,4.9-10.3,7.3c-2.9,2.5-5,4.4-6.2,5.7c0,0,0,0,0,0.1c0,0,0,0,0,0c-0.4,0.3-1.1,0.9-1.9,1.9c-0.8,1-1.4,1.5-1.6,1.7
		c-1,1.4-1.8,2.7-2.5,3.7c-0.7,1.1-1.1,1.8-1.2,2.2c-0.1,0.3-0.1,0.6-0.1,0.8c0,0.8,0.5,1.2,1.5,1.3c3.3,0.2,6.2,0.3,8.7,0.3
		c1.9,0,3.5-0.1,4.9-0.2c-5,5-8.8,8.4-11.3,10.1c0-0.5,0.1-1.1,0.1-1.5c0-0.5,0-0.9,0-1.3c-0.3-2.4-1.1-4.5-2.4-6.2
		c-1.3-1.7-3-2.6-5-2.6c-1.2,0-2.4,0.8-3.8,2.3c-1.4,1.6-2.6,3.5-3.7,5.9c-1.1,2.4-1.9,4.1-2.2,5.2c-0.4,1.1-0.6,2.1-0.7,2.9v0.2
		c0,1.5,0.6,2.8,1.8,3.9c1.2,1.1,2.7,1.7,4.6,1.8c0.3,0,0.6,0,0.9,0c0.2,0,0.4,0,0.8,0s0.8-0.1,1.4-0.1c0.6-0.1,1.1-0.2,1.6-0.3
		c0.5-0.1,1-0.3,1.3-0.5c-0.7,2-1.7,3.9-3.2,5.7s-3.2,3.5-5.2,5c-1.9,1.5-4.3,3.2-7.1,5s-4.2,2.9-4.2,3.3c0,0,0,0.1,0,0.1
		c0,0,0.2,0,0.6,0c0.9,0,2.4-0.2,4.3-0.7s3.8-1,5.5-1.6c1.7-0.6,3.1-1.3,4-2c0.9-0.7,2.1-2.1,3.4-4.2s3-5.4,4.9-10.2
		c0.4-1.1,0.8-2.2,1.2-3.5c2.5-2,4.8-3.9,6.8-5.7c2.1-1.8,3.9-3.4,5.4-4.8c1.5-1.4,2.8-2.7,3.9-3.8c1.1-1.1,2.4-2.2,4.1-3.3
		c0.5-0.3,1-1.2,1.7-2.7c0.3-0.8,0.4-1.5,0.4-2.1c0-0.4,0-0.7-0.1-1.1c-0.1-0.2-0.2-0.3-0.3-0.3c0,0-0.1,0-0.1,0
		c-0.9,0.3-1.9,0.5-3,0.7c-1,0.2-2.8,0.4-5.4,0.6c-2.6,0.2-4.4,0.2-5.6,0.2c-0.1,0-0.3,0-0.5,0c-0.2,0-0.5,0-0.9,0
		c-0.7,0-1.3,0-1.8,0c-0.7,0-1.1-0.2-1.1-0.5c0.2-0.4,0.4-0.7,0.6-0.9s0.5-0.4,0.8-0.6c0,0,0,0,0-0.1c0,0,0,0,0,0.1
		c2.1-2.4,5.7-4.9,10.7-7.5s9.8-5.1,14.6-7.4c1.8-0.9,3.2-1.7,4.2-2.4c1-0.6,2.1-1.5,3-2.6c1.4-1.6,2.6-3.2,3.6-4.7
		c1-1.5,2-3.1,2.8-4.7c0.1-0.2,0.1-0.3,0.1-0.4c0-0.1,0-0.2-0.1-0.3C144.4,16.1,144.3,16.1,144.2,16.1z"/>
	<path class="st0" d="M127.7,72.1c-0.4-0.7-1-1.3-1.5-1.9c-0.6-0.6-1.2-1.1-1.9-1.6s-1.4-0.9-2.1-1.3c-0.3-0.2-0.4-0.3-0.6-0.3
		c-0.1,0-0.2,0-0.2,0c-0.2,0-0.4,0.2-0.6,0.5L113,79.5c-0.2,0.3-0.2,0.5-0.2,0.5l0,0.1c0,0.1,0.1,0.3,0.3,0.4
		c1.4,0.8,2.6,1.8,3.8,2.7c1.1,1,2.3,1.9,3.5,2.9c0.1,0.1,0.2,0.2,0.4,0.2c0.1,0,0.3,0,0.5-0.1c0.2-0.1,0.6-0.3,1-0.5
		c0.4-0.3,0.8-0.5,1.1-0.8c0.4-0.3,0.6-0.5,0.8-0.7c0.6-0.6,1.1-1.1,1.6-1.7c0.5-0.6,1-1.3,1.4-2c0.7-1.1,1.2-2,1.4-2.8
		c0.2-0.8,0.3-1.4,0.3-1.9s-0.1-1-0.2-1.4C128.4,73.5,128.1,72.8,127.7,72.1z"/>
	<path class="st0" d="M188.1,53.1c-0.3,0.6-0.6,1.1-1,1.7c-0.4,0.5-0.7,1.1-1.1,1.6c-1.3,1.8-2.1,2.9-2.5,3.3
		c-1.1,0.7-2.4,1.7-3.7,3c-1.3,1.4-2.6,2.8-3.7,4.4c-2.1,3.4-3.8,5.7-5,6.7c-2.1,1.8-4.8,2.7-8.2,2.7c-1.6,0-3.4-0.4-5.6-1.3
		c-1-0.5-2.1-0.7-3-0.7c-1.8,0-4.2,0.9-7.4,2.7c-2.1,1.4-4.1,2.8-5.8,4.4c-2.9,2.6-5.6,5.5-8.3,8.8c-2.1,2.5-3.2,4.3-3.2,5.2
		c0,0.3,0.1,0.5,0.3,0.6h0c0.4,0,2.8-1.4,7.2-4.3c2.2-1.5,4.4-2.2,6.5-2.2c1.4,0,3,0.4,5,1.3c2,0.9,3.9,1.4,5.9,1.4
		c3.8,0,7-0.9,9.6-2.8c1.2-0.8,3.3-3.1,6.2-6.7c2.9-3.7,4.4-5.7,4.7-6c2.3-2.5,4.2-3.8,5.7-3.8c0.6,0,1.5,0.1,2.9,0.4
		c1.3,0.3,2.5,0.4,3.7,0.4c1.6,0,3.2-1,4.7-2.9c1.6-1.9,2.3-4,2.3-6.2c0-2.4-0.9-5-2.6-7.7S188.8,53.1,188.1,53.1z"/>
	<path class="st0" d="M224.8,42.6c1.1,0,2.3-0.7,3.7-2c1.8-1.8,2.7-4.1,2.7-6.8c0-0.4,0-0.8,0-1.2c-0.2-1.7-1-2.9-2.5-3.9
		c-1.2-0.7-3.5-1.6-6.9-2.6c-3.1,4.6-5.5,8.9-7.3,13c3.4,1.5,6.6,2.6,9.8,3.3C224.3,42.6,224.5,42.6,224.8,42.6z"/>
	<path class="st0" d="M261.4,53.4c-0.7-0.8-1.8-1.4-3.1-1.7l-6.6-1.8c-1.2-0.3-2.2-0.8-3.1-1.5s-1.9-1.6-2.8-2.6
		c-0.6-0.5-0.9-0.8-1.1-0.9c-0.2-0.1-0.3-0.1-0.4-0.1c-0.2,0-0.6,0.2-1,0.5c-0.5,0.6-0.8,1.2-1.1,1.7c-0.3,0.5-0.6,1.1-0.8,1.7
		c-0.2,0.6-0.4,1.2-0.6,1.8c-0.2,0.6-0.3,1.3-0.5,2c-0.5,0.6-0.9,1.2-1.4,1.9c-0.5,0.7-0.9,1.5-1.4,2.3c-0.9,1.6-1.5,3.2-1.9,4.7
		c-0.2,0.7-0.3,1.2-0.4,1.7s-0.1,0.8-0.1,1c0,0.5,0.1,0.9,0.2,1.5c0.1,0.5,0.4,1,0.8,1.5s1,0.8,1.7,1c-0.1,0.1-0.2,0.2-0.4,0.4
		s-0.4,0.4-0.7,0.6c-0.3,0.2-0.5,0.4-0.8,0.5c-0.3,0.2-0.5,0.2-0.7,0.2c-0.7,0-1.4-0.1-2.1-0.4c-0.6-0.2-1.3-0.4-2.1-0.5h-0.1
		c-1,0-2.2,0.5-3.5,1.4c-0.9,0.9-2.4,2.2-4.3,3.9s-4.2,2.5-6.8,2.5h-0.1c-6.4,0-9.6-3.8-9.6-11.4v-0.4c0,0,0,0,0,0c0,0,0,0,0-0.1
		c0-1.1,0.1-3,0.2-5.7c0-0.4,0.1-1.9,0.4-4.4s0.7-6.7,1.4-12.5s1.4-11.4,2.2-16.8c-0.1-0.5-0.2-0.8-0.4-0.8c-0.1,0-0.3,0.1-0.5,0.4
		c-0.7,1.6-1.3,3.2-2,4.8s-1.2,3.2-1.8,4.8c-0.5,1.9-1,4.4-1.5,7.6c-0.5,3.1-1,6.1-1.4,8.9c-0.4,2.8-1,7.4-1.8,13.8
		c-0.8,6.4-1.2,10.3-1.2,11.5c0,4.3,0.9,8.1,2.8,11.2c1.9,3.1,4.6,4.7,8.2,4.7c3.4,0,6.6-2.3,9.8-7c2.5-3.8,4.8-6.2,6.7-6.9
		c0.4-0.1,0.9-0.2,1.4-0.2c0.6,0,1.2,0.1,1.9,0.2c0.2,0,0.5,0,0.7,0c0.7,0,1.4-0.2,2.2-0.5s1.5-0.9,2.2-1.5c0.7-0.6,1.5-1.3,2.1-2.1
		s1.4-1.5,2.1-2.1c1.5-1.4,3.2-2.5,4.9-3.3c1-0.5,2-0.7,3-0.9c1-0.1,1.7-0.2,2.3-0.2c0.8,0,1.7,0.1,2.5,0.2c0.3,0.1,0.7,0.1,1,0.1
		c0.5,0,1-0.1,1.6-0.3c0.6-0.2,1.3-0.5,2-1c0.7-0.5,1.3-1,1.9-1.5s1.1-1.1,1.5-1.7c1.3-2.1,1.9-4,1.9-5.9c0-0.6-0.1-1.2-0.2-1.7
		C262.6,55.1,262.1,54.2,261.4,53.4z M247.7,61.5c-0.5,0.3-1,0.7-1.6,1c-0.6,0.2-1.3,0.3-2,0.3c-1,0-2.1-0.2-3.1-0.7
		c-1.7-0.8-2.5-1.5-2.5-2.2v-0.1c0.2-0.7,0.4-1.3,0.7-1.9c0.3-0.6,0.7-1.2,1.2-1.7c1.1-1.1,2.1-1.6,2.9-1.6c1.1,0.1,1.9,0.3,2.5,0.6
		s1.1,0.7,1.4,1.2c0.4,0.5,0.6,1.1,0.9,1.7c0.2,0.7,0.5,1.4,0.8,2.3C248.6,60.7,248.2,61.1,247.7,61.5z M259.2,62.2
		c-0.7,0.6-1.3,0.9-2,1c-0.6,0.1-1.2,0.1-1.6,0.1c-0.3,0-0.7,0-1.2-0.1s-1-0.2-1.6-0.3s-1.1-0.3-1.4-0.3c-0.3-0.3-0.5-0.6-0.7-1
		c-0.2-0.4-0.3-0.7-0.3-1v-0.1c0.4-0.4,0.8-1,1.4-1.6c0.6-0.6,1.1-1.3,1.6-1.9c0.5,0.1,1.1,0.2,1.8,0.3c0.7,0.1,1.3,0.3,1.9,0.6
		c0.6,0.2,1.2,0.5,1.6,0.9c0.5,0.4,0.8,0.8,0.9,1.3c0.1,0.2,0.1,0.4,0.1,0.6C259.8,61.2,259.6,61.7,259.2,62.2z"/>
	<path class="st0" d="M296.4,24.7c1,0.9,2.1,1.8,3.1,2.7c0.1,0.1,0.2,0.2,0.4,0.2c0.1,0,0.2,0.1,0.3,0.1c0.1,0,0.2,0,0.4,0
		c0.2,0,0.4-0.1,0.7-0.3c0.3-0.2,0.7-0.5,1.1-0.9c0.6-0.6,1.2-1.3,1.8-2c0.5-0.7,1.1-1.5,1.6-2.3c0.6-1,1.1-1.9,1.3-2.6
		c0.2-0.7,0.3-1.3,0.3-1.8c0-0.4-0.1-0.9-0.2-1.3c-0.2-0.8-0.4-1.4-0.8-2.1c-0.4-0.6-0.9-1.2-1.4-1.7s-1.1-1-1.7-1.4
		s-1.2-0.8-1.9-1.2c-0.2-0.2-0.4-0.3-0.5-0.3h-0.2c-0.2,0-0.4,0.1-0.6,0.4l-7,11.1c-0.2,0.3-0.2,0.4-0.2,0.5c0,0.1,0.1,0.3,0.2,0.5
		C294.3,22.9,295.4,23.8,296.4,24.7z"/>
	<path class="st0" d="M306.9,26.7c-0.2,0-0.4,0.1-0.6,0.4l-7,11.1c-0.2,0.3-0.2,0.4-0.2,0.5c0,0.1,0.1,0.3,0.2,0.5
		c1.2,0.8,2.3,1.6,3.4,2.5c1,0.9,2.1,1.8,3.1,2.7c0.1,0.1,0.2,0.2,0.4,0.2c0.1,0,0.2,0.1,0.3,0.1s0.2,0,0.4,0c0.2,0,0.4-0.1,0.7-0.3
		c0.3-0.2,0.7-0.5,1.1-0.9c0.6-0.6,1.2-1.3,1.8-2c0.5-0.7,1.1-1.5,1.6-2.3c0.6-1,1.1-1.9,1.3-2.6c0.2-0.7,0.3-1.3,0.3-1.8
		c0-0.4-0.1-0.9-0.2-1.3c-0.2-0.8-0.4-1.4-0.8-2.1c-0.4-0.6-0.9-1.2-1.4-1.7c-0.5-0.5-1.1-1-1.7-1.4c-0.6-0.4-1.2-0.8-1.9-1.2
		c-0.2-0.2-0.4-0.3-0.5-0.3H306.9z"/>
	<path class="st0" d="M287.2,41.5l0.3,0.2l2.7,2.3l0.5,0.4l1.1,0.9c0.1,0.1,0.1,0.1,0.2,0.2c0.1,0,0.2,0.1,0.3,0.1
		c0.1,0,0.1,0,0.2,0c0.1,0,0.3,0,0.5-0.1c0.2-0.1,0.5-0.3,0.9-0.6l0.2-0.2l0.5-0.5c0.3-0.3,0.5-0.5,0.8-0.8c0.2-0.3,0.5-0.6,0.7-0.9
		c0.2-0.3,0.4-0.5,0.6-0.7s0.4-0.5,0.5-0.7L298,40l0.6-0.9l0.3-0.6c0.1-0.1,0.1-0.1,0.1-0.2s0-0.2,0.1-0.2l0.1-0.3l0.2-0.6
		c0-0.1,0-0.1,0-0.1c0,0,0-0.1,0-0.1c0.1-0.5,0.2-1.1,0.2-1.7c0-0.1,0-0.1,0-0.1c0,0,0-0.1,0-0.1s0-0.1,0-0.2c0-0.1,0-0.1,0-0.2
		c0-0.1,0-0.2,0-0.3l-0.1-0.4c-0.1-0.2-0.1-0.3-0.2-0.4c0-0.1-0.1-0.3-0.2-0.4l-0.1-0.2l-0.4-0.8l-0.3-0.4c-0.2-0.3-0.5-0.7-0.8-0.9
		c-0.3-0.3-0.6-0.6-0.9-0.9l-0.5-0.4c-0.4-0.3-0.8-0.6-1.2-0.8s-0.8-0.5-1.2-0.8c-0.1,0-0.1,0-0.2-0.1c-0.1-0.1-0.2-0.1-0.2-0.1
		l-0.1,0h-0.1c-0.2,0-0.4,0.1-0.6,0.4l-7,11c-0.2,0.3-0.2,0.4-0.2,0.6c0,0.2,0.1,0.3,0.3,0.5C285.9,40.6,286.6,41,287.2,41.5z"/>
	<path class="st0" d="M315.9,56.7c-0.1,0-0.1,0-0.2,0c-0.4,0-0.8,0.6-1.2,1.8c-0.7,1.5-1.2,2.6-1.7,3.3s-0.9,1.3-1.4,1.6
		c-0.4,0.3-0.8,0.4-1.2,0.4c0,0-0.2,0-0.4,0s-0.6-0.1-1.2-0.3c-0.1,0-0.2,0-0.2,0c-0.2,0-0.3,0.1-0.4,0.2c-0.1,0.1-0.2,0.2-0.2,0.3
		c-1,1.8-2.2,3.2-3.4,4.3s-2.7,1.7-4.4,1.8h-0.3c-0.5,0-0.9,0-1.3-0.1s-0.8-0.1-1.1-0.1c-0.3,0-0.6,0-0.9,0.1
		c-0.9,0.3-2.3,1.4-4.2,3.6s-4.6,3.2-8.2,3.3c-2.5,0-4.5-0.5-6.1-1.6c-1.5-1.2-2.6-2.7-3.2-4.6s-1-3.5-1.1-5v-0.7
		c0-1.1,0.1-3,0.2-5.7c0-0.4,0.1-1.9,0.4-4.4s0.7-6.7,1.4-12.5s1.4-11.4,2.2-16.8c-0.1-0.5-0.2-0.8-0.4-0.8c-0.1,0-0.3,0.1-0.5,0.4
		c-0.7,1.6-1.3,3.2-2,4.8s-1.2,3.2-1.8,4.8c-0.5,1.9-1,4.4-1.5,7.6c-0.5,3.1-1,6.1-1.4,8.9c-0.4,2.8-1,7.4-1.8,13.8
		c-0.8,6.4-1.2,10.3-1.2,11.5v1.1c0,3.5,0.6,6.7,1.8,9.5c1.8,3.5,4.7,5.3,8.7,5.3c3.6,0,6.8-2.1,9.7-6.3c2.6-3.6,4.4-5.8,5.5-6.5
		c0.8-0.6,1.8-0.9,3.1-0.9c0.6-0.1,1.1-0.1,1.7-0.2s1.2-0.2,1.7-0.4c1.1-0.5,2.3-1.3,3.6-2.3c1.2-1,2.3-2,3.3-3.1
		c1.7-0.4,3.1-1.1,4.2-1.9s2.1-2.3,3.1-4.2s1.9-4.5,2.6-7.7c0.1-0.6,0.1-1.1,0.1-1.4C316.2,57.1,316.1,56.8,315.9,56.7z"/>
</g>
</svg>
